<?xml version="1.0" encoding="utf-8"?>
<!-- Generator: Adobe Illustrator 25.4.1, SVG Export Plug-In . SVG Version: 6.00 Build 0)  -->
<svg version="1.1" id="Capa_1" xmlns="http://www.w3.org/2000/svg" xmlns:xlink="http://www.w3.org/1999/xlink" x="0px" y="0px"
	 viewBox="0 0 231.5 231.5" style="enable-background:new 0 0 231.5 231.5;" xml:space="preserve">
<style type="text/css">
	.st0{fill:#FF7F36;}
</style>
<g>
	<path class="st0" d="M107.4,145.8c0.4,3.9,3.7,6.7,7.5,6.7c0.3,0,0.5,0,0.8,0c4.1-0.4,7.1-4.1,6.7-8.2l-3.5-33.5
		c-0.4-4.1-4.1-7.1-8.2-6.7c-4.1,0.4-7.1,4.1-6.7,8.2L107.4,145.8z"/>
	<path class="st0" d="M154.4,152.5c0.3,0,0.5,0,0.8,0c3.8,0,7.1-2.9,7.5-6.7l3.5-33.5c0.4-4.1-2.6-7.8-6.7-8.2
		c-4.1-0.4-7.8,2.6-8.2,6.7l-3.5,33.5C147.2,148.4,150.2,152.1,154.4,152.5z"/>
	<path class="st0" d="M96.3,185.1c-12.8,0-23.2,10.4-23.2,23.2c0,12.8,10.4,23.2,23.2,23.2s23.2-10.4,23.2-23.2
		C119.5,195.5,109.1,185.1,96.3,185.1z M96.3,216.5c-4.5,0-8.2-3.7-8.2-8.2c0-4.5,3.7-8.2,8.2-8.2s8.2,3.7,8.2,8.2
		C104.5,212.8,100.8,216.5,96.3,216.5z"/>
	<path class="st0" d="M173.7,185.1c-12.8,0-23.2,10.4-23.2,23.2c0,12.8,10.4,23.2,23.2,23.2s23.2-10.4,23.2-23.2
		C196.9,195.5,186.5,185.1,173.7,185.1z M173.7,216.5c-4.5,0-8.2-3.7-8.2-8.2c0-4.5,3.7-8.2,8.2-8.2c4.5,0,8.2,3.7,8.2,8.2
		C181.9,212.8,178.3,216.5,173.7,216.5z"/>
	<path class="st0" d="M218.6,79.1c-1.4-1.8-3.6-2.9-5.9-2.9H63.2L56.9,52c-0.9-3.3-3.8-5.6-7.3-5.6H18.9c-4.1,0-7.5,3.4-7.5,7.5
		s3.4,7.5,7.5,7.5h24.9L50,85.4c0,0.1,0.1,0.3,0.1,0.4l23.2,89c0.9,3.3,3.8,5.6,7.3,5.6h108.9c3.4,0,6.4-2.3,7.3-5.6l23.2-89.2
		C220.5,83.3,220,80.9,218.6,79.1z M183.6,165.4H86.4L67.1,91.2h135.9L183.6,165.4z"/>
	<path class="st0" d="M105.6,52.9c1.5,1.5,3.4,2.2,5.3,2.2c1.9,0,3.8-0.7,5.3-2.2c2.9-2.9,2.9-7.7,0-10.6L92.6,18.7
		c-2.9-2.9-7.7-2.9-10.6,0c-2.9,2.9-2.9,7.7,0,10.6L105.6,52.9z"/>
	<path class="st0" d="M159.2,55c1.9,0,3.8-0.7,5.3-2.2L188,29.3c2.9-2.9,2.9-7.7,0-10.6c-2.9-2.9-7.7-2.9-10.6,0l-23.6,23.6
		c-2.9,2.9-2.9,7.7,0,10.6C155.3,54.3,157.3,55,159.2,55z"/>
	<path class="st0" d="M135,48.3C135,48.3,135,48.3,135,48.3c4.1,0,7.5-3.4,7.5-7.5l0-33.3c0-4.1-3.4-7.5-7.5-7.5c0,0,0,0,0,0
		c-4.1,0-7.5,3.4-7.5,7.5l0,33.3C127.5,45,130.9,48.3,135,48.3z"/>
</g>
</svg>
