<?xml version="1.0" encoding="utf-8"?>
<!-- Generator: Adobe Illustrator 25.4.1, SVG Export Plug-In . SVG Version: 6.00 Build 0)  -->
<svg version="1.1" id="Capa_1" xmlns="http://www.w3.org/2000/svg" xmlns:xlink="http://www.w3.org/1999/xlink" x="0px" y="0px"
	 viewBox="0 0 235.1 235.1" style="enable-background:new 0 0 235.1 235.1;" xml:space="preserve">
<style type="text/css">
	.st0{fill:#FF7F36;}
</style>
<path class="st0" d="M212,84.4l-4,0c-10.9-40.5-48-69.2-90.5-69.2c-42.3,0-79.3,28.8-90.4,69.2l-4,0C10.4,84.4,0,94.8,0,107.5v25.9
	c0,12.7,10.4,23.1,23.1,23.1H26c3.7,29.1,28.6,51.6,58.7,51.6h5.5c2.9,6.9,9.7,11.7,17.7,11.7h19.5c10.6,0,19.2-8.6,19.2-19.2
	c0-10.6-8.6-19.2-19.2-19.2h-19.5c-7.9,0-14.7,4.8-17.7,11.7h-5.5c-24.3,0-44.2-19.8-44.2-44.1V92.8c7.8-36.3,40-62.6,77-62.6
	c37.2,0,69.6,26.3,77.1,62.5v56.3c0,4.1,3.4,7.5,7.5,7.5h9.9c12.7,0,23.1-10.4,23.1-23.1v-25.9C235.1,94.8,224.8,84.4,212,84.4z
	 M107.8,196.5h19.5c2.3,0,4.2,1.9,4.2,4.2c0,2.3-1.9,4.2-4.2,4.2h-19.5c-2.3,0-4.2-1.9-4.2-4.2C103.6,198.4,105.5,196.5,107.8,196.5
	z M15,133.5v-25.9c0-4.5,3.6-8.1,8.1-8.1l2.4,0v42.1h-2.4C18.6,141.6,15,137.9,15,133.5z M220.1,133.5c0,4.5-3.6,8.1-8.1,8.1h-2.4
	V99.4l2.4,0c4.5,0,8.1,3.6,8.1,8.1V133.5z"/>
</svg>
